{"title":"Make Some Noise For Desi Boyz (Desi Boyz) - Full Song - H.264 -","uid":6930114,"size":83629799,"categoryP":"video","categoryS":"music_videos","magnet":"?xt=urn:btih:674c6d888c36d77f5f0dbc94e792fe2613f97e5c&amp;dn=Make+Some+Noise+For+Desi+Boyz+%28Desi+Boyz%29+-+Full+Song+-+H.264+-+&amp;tr=udp%3A%2F%2Ftracker.openbittorrent.com%3A80&amp;tr=udp%3A%2F%2Fopen.demonii.com%3A1337&amp;tr=udp%3A%2F%2Ftracker.coppersurfer.tk%3A6969&amp;tr=udp%3A%2F%2Fexodus.desync.com%3A6969","seeders":1,"leechers":0,"uploader":"AbhiHKRG","files":6,"time":1325631646,"description":"Cover ::\n &lt;a href=&quot;\nhttp://i.minus.com/iHh9abJyVlnTh.png&quot; rel=&quot;nofollow&quot; target=&quot;_NEW&quot;&gt;\nhttp://i.minus.com/iHh9abJyVlnTh.png&lt;/a&gt;\n\n\nScreen ::\n &lt;a href=&quot;\nhttp://i.minus.com/igOxNceyMVA6e.png&quot; rel=&quot;nofollow&quot; target=&quot;_NEW&quot;&gt;\nhttp://i.minus.com/igOxNceyMVA6e.png&lt;/a&gt;\n &lt;a href=&quot;\nhttp://i.minus.com/iNVS8lOHK6mhE.png&quot; rel=&quot;nofollow&quot; target=&quot;_NEW&quot;&gt;\nhttp://i.minus.com/iNVS8lOHK6mhE.png&lt;/a&gt;\n &lt;a href=&quot;\nhttp://i.minus.com/ibxJqLxyvNchgq.png&quot; rel=&quot;nofollow&quot; target=&quot;_NEW&quot;&gt;\nhttp://i.minus.com/ibxJqLxyvNchgq.png&lt;/a&gt;\n &lt;a href=&quot;\nhttp://i.minus.com/iI0zOfWU4XGJb.png&quot; rel=&quot;nofollow&quot; target=&quot;_NEW&quot;&gt;\nhttp://i.minus.com/iI0zOfWU4XGJb.png&lt;/a&gt;\n &lt;a href=&quot;\nhttp://i.minus.com/ibxCOVS4IyMIaj.png&quot; rel=&quot;nofollow&quot; target=&quot;_NEW&quot;&gt;\nhttp://i.minus.com/ibxCOVS4IyMIaj.png&lt;/a&gt;\n &lt;a href=&quot;\nhttp://i.minus.com/iymdvGYTjF4E8.png&quot; rel=&quot;nofollow&quot; target=&quot;_NEW&quot;&gt;\nhttp://i.minus.com/iymdvGYTjF4E8.png&lt;/a&gt;\n &lt;a href=&quot;\nhttp://i.minus.com/ibyXv1FAhOwJNj.png&quot; rel=&quot;nofollow&quot; target=&quot;_NEW&quot;&gt;\nhttp://i.minus.com/ibyXv1FAhOwJNj.png&lt;/a&gt;\n &lt;a href=&quot;\nhttp://i.minus.com/ib0yszR8Ea3yv2.png&quot; rel=&quot;nofollow&quot; target=&quot;_NEW&quot;&gt;\nhttp://i.minus.com/ib0yszR8Ea3yv2.png&lt;/a&gt;\n\n\nGeneral Info ::\nFormat                           : AVI\nFormat/Info                      : Audio Video Interleave\nFile size                        : 79.8 MiB\nDuration                         : 4mn 5s\nOverall bit rate                 : 2 722 Kbps\n\n\nVideo Info ::\nID                               : 0\nFormat                           : AVC\nFormat/Info                      : Advanced Video Codec\nFormat profile                   : &lt;a class=&quot;__cf_email__&quot; href=&quot;/cdn-cgi/l/email-protection&quot; data-cfemail=&quot;7830111f1038344d5649&quot;&gt;[email&amp;#160;protected]&lt;/a&gt;&lt;script cf-hash='f9e31' type=&quot;text/javascript&quot;&gt;\n/* &lt;![CDATA[ */!function(){try{var t=&quot;currentScript&quot;in document?document.currentScript:function(){for(var t=document.getElementsByTagName(&quot;script&quot;),e=t.length;e--;)if(t[e].getAttribute(&quot;cf-hash&quot;))return t[e]}();if(t&amp;&amp;t.previousSibling){var e,r,n,i,c=t.previousSibling,a=c.getAttribute(&quot;data-cfemail&quot;);if(a){for(e=&quot;&quot;,r=parseInt(a.substr(0,2),16),n=2;a.length-n;n+=2)i=parseInt(a.substr(n,2),16)^r,e+=String.fromCharCode(i);e=document.createTextNode(e),c.parentNode.replaceChild(e,c)}}}catch(u){}}();/* ]]&gt; */&lt;/script&gt;\nFormat settings, CABAC           : Yes\nFormat settings, ReFrames        : 2 frames\nCodec ID                         : H264\nDuration                         : 10s 0ms\nBit rate                         : 2 518 Kbps\nWidth                            : 1 280 pixels\nHeight                           : 544 pixels\nDisplay aspect ratio             : 2.35:1\nFrame rate                       : 30.000 fps\nColor space                      : YUV\nChroma subsampling               : 4:2:0\nBit depth                        : 8 bits\nScan type                        : Progressive\nBits/(Pixel*Frame)               : 0.121\nStream size                      : 73.8 MiB (93%)\n\n\nAudio Info ::\nID                               : 1\nFormat                           : MPEG Audio\nFormat version                   : Version 1\nFormat profile                   : Layer 3\nCodec ID                         : 55\nCodec ID/Hint                    : MP3\nDuration                         : 4mn 5s\nBit rate mode                    : Constant\nBit rate                         : 192 Kbps\nChannel(s)                       : 2 channels\nSampling rate                    : 44.1 KHz\nCompression mode                 : Lossy\nStream size                      : 5.63 MiB (7%)","torrent":{"xt":"urn:btih:674c6d888c36d77f5f0dbc94e792fe2613f97e5c","amp;dn":"Make+Some+Noise+For+Desi+Boyz+%28Desi+Boyz%29+-+Full+Song+-+H.264+-+","amp;tr":["udp%3A%2F%2Ftracker.openbittorrent.com%3A80","udp%3A%2F%2Fopen.demonii.com%3A1337","udp%3A%2F%2Ftracker.coppersurfer.tk%3A6969","udp%3A%2F%2Fexodus.desync.com%3A6969"],"infoHash":"674c6d888c36d77f5f0dbc94e792fe2613f97e5c","infoHashBuffer":{"type":"Buffer","data":[103,76,109,136,140,54,215,127,95,13,188,148,231,146,254,38,19,249,126,92]},"announce":[],"urlList":[]}}